<svg width="167" height="71" viewBox="0 0 1287 548" fill="none" xmlns="http://www.w3.org/2000/svg">
<path d="M785.5 546.3C771.7 545.2 760.8 541.1 751 533.4C743.8 527.8 742 525.2 742 520.5V517H746.8C759.3 516.9 778.5 512.8 787.2 508.4C796.9 503.5 803.9 495.2 805.5 486.8C807.3 477.1 799.4 465 788.9 461.4C776.8 457.3 752.5 460.7 735.4 469C728.8 472.2 725 475.1 714.9 484.7C694.3 504.3 688.7 508.1 673.6 513.2C665.7 515.9 662.7 516.3 650.4 516.8C634.4 517.3 625.2 516.3 608 511.9C596.7 509 581.1 503.5 573.8 499.8C570.5 498.2 570 497.5 570 494.6V491.3L583.3 490.7C615.6 489.3 639 480.4 664.1 460.2C676.6 450.1 686.3 438.9 698.8 420.1C717.4 392.2 726.8 384.5 750.5 378.4C763.8 374.9 792.4 373.8 803.4 376.4C822.6 380.9 835.4 394.7 842.5 418.5C844 423.5 845.4 428.1 845.6 428.8C845.8 429.7 847.5 429.2 851.2 427C865.6 418.5 885.5 411.1 901 408.4C907.8 407.3 914.1 406.9 923 407.3C933.9 407.7 936.7 408.1 944.5 410.9C969.5 419.9 998.6 440.6 1017.7 462.9C1022.7 468.8 1024 471 1024 473.7C1024 476.9 1023.9 477 1020.1 477C1017.9 477 1012.4 476.1 1007.8 475C988 470.3 973.1 470.3 953.1 475.1C931 480.3 902.8 495.8 872.7 519.2C860.1 529.1 851.1 534.6 841.8 538.3C825.9 544.7 803.8 547.8 785.5 546.3Z" fill="white"/>
<path d="M398.5 474.1C382.2 470.3 360.9 461.6 348.8 453.8C344.6 451.2 344 450.4 344 447.4C344 444.2 344.2 444 347.3 444C349.1 444 356.2 444.7 363 445.7C381.9 448.2 406.8 447.9 420 445.1C434.2 442.1 440.6 439.9 453.5 433.5C467.1 426.8 477.1 419.3 497 401C522.6 377.4 531.9 371.8 552.3 367.3C564.1 364.8 595.4 364.8 606.3 367.3C630.9 373.1 644 388.7 644 412.4C644 438.2 629.6 454.6 597.5 465.5C590 468.1 580.5 470 574.8 470H569.2L568 464.8C565.6 453.4 558.3 444.2 549.8 442C539.9 439.3 523.7 443.9 496 457.3C462.5 473.4 455.7 475.2 427.5 475.6C409.9 475.9 405.2 475.6 398.5 474.1Z" fill="white"/>
<path d="M658.8 378C652.6 376.9 643 374.1 643 373.4C643 373.1 645.7 369.4 649.1 365.1L655.2 357.4L662.3 359.3C667 360.5 673.3 361.3 680.5 361.4C690.7 361.5 691.9 361.3 697.1 358.7C703.4 355.6 709.8 349.4 713 343C715 339 715 338.8 713.3 339.5C698.9 345.6 680.5 346.4 671.6 341.2C661.5 335.4 663.5 320.3 678.1 291.4C691.1 265.8 705.9 247.1 719.3 239.1C731.5 231.9 736.3 230.5 749.5 230.5C759 230.5 762.2 230.9 764.7 232.2C767.4 233.7 767.9 233.7 768.4 232.5C768.8 231.3 771.9 231 786.5 231C796.5 231 804 231.4 804 231.9C804 233.3 746.3 342.7 742.6 348.5C733.9 361.8 719.6 371.3 700.4 376.6C693.6 378.4 666.3 379.4 658.8 378ZM718.3 326.1C719.2 325.4 726.3 312.6 734.1 297.7C742 282.7 750.8 266 753.7 260.6C756.9 254.6 758.7 250.3 758.1 249.7C756.6 248.2 745.8 248.6 742.5 250.2C738.6 252.3 736.2 255 730.7 263.5C719.6 281 701 318.3 701 323.3C701 327.3 702.9 328.2 710.1 327.8C713.8 327.6 717.5 326.9 718.3 326.1Z" fill="white"/>
<path d="M193.8 347.9C176.1 346 171.7 331.6 182 309.4C193 285.5 210.9 268.9 230.3 264.6C244.2 261.4 255.7 261.9 261.1 265.9L264.1 268.1L267.2 261.4C271.1 253.1 270.5 250.2 264.5 248.1C259.5 246.4 243.8 247.9 234 250.9C230.5 252 227.4 252.7 227.2 252.5C227 252.3 228.8 248.4 231.2 243.8L235.5 235.5L245.5 233.2C253.8 231.2 258.6 230.8 273.1 230.7L290.6 230.5L296.5 233.5C304.1 237.5 306.3 241.2 305.7 249.5C305.5 252.9 304.5 257.1 303.5 259C302.6 260.9 291.9 281.5 279.7 304.8L257.5 347H242.7C228.7 347 227.8 346.9 227.3 345C227 343.9 226.7 343 226.6 343C226.6 343 224.1 343.9 221.1 345.1C214.8 347.4 202 348.8 193.8 347.9ZM227.3 330.4L231.9 328.8L242.7 308.2C255.9 283 255.2 284.7 253.4 282.1C252.2 280.5 250.8 280 247.3 280C238.3 280 231.1 285.7 223.1 299.5C212.9 317 209.1 327.7 212.2 330.8C213.9 332.5 221.8 332.3 227.3 330.4Z" fill="white"/>
<path d="M295.8 346.5C289.8 344.9 285.6 341.8 284 338C282.4 334 283.3 324.9 285.7 320.9L287.5 317.9L301 317.8C308.4 317.8 314.7 317.9 314.8 318.1C315 318.3 314.9 320.2 314.5 322.3C313.3 328.5 317 330.6 325.5 328.8C328.7 328.1 330.9 326.8 333.4 323.9C339.4 317.3 338.5 314.6 324.2 298C313.4 285.5 311.9 279.4 316.4 266.7C321.3 252.8 329.7 243.6 343.4 237C354.3 231.8 365.4 229.6 378.5 230.2C390.5 230.7 397 233.3 400.8 239C402.8 241.9 403.1 243.4 402.7 247.5C402.4 250.3 401.4 254.2 400.6 256.3L399 260H384.5C370.4 260 370 259.9 371 258.1C374.1 252.2 370.1 247.2 363.3 248.5C355.2 250 350 255.7 350 263.2C350 267.3 351.8 270.3 360.4 280.5C370.6 292.7 372.4 296.3 372.5 304C372.5 313.2 368.9 320.3 359.1 330.1C350.5 338.7 343.1 342.8 330.6 346C321.4 348.3 303.4 348.6 295.8 346.5Z" fill="white"/>
<path d="M0.80003 345.3C30.3 289 64 225.4 66.3 222C71.2 214.8 79.1 207.7 86.7 203.7C98.9 197.3 102.6 196.8 139.4 196.3L172.3 195.8L167.8 204.2L163.3 212.5L140.9 213C115.2 213.6 112.6 214.3 105.5 222.1C102.2 225.7 92 243.3 92 245.4C92 245.7 101.9 246 114 246H136.1L131 256L125.8 266L103.2 266.2L80.6 266.5L74.2 278.5C70.8 285.1 63.8 298.4 58.7 308C53.7 317.6 47 330.2 44 336L38.5 346.5L19.2 346.8C1.00003 347 3.04431e-05 346.9 0.80003 345.3Z" fill="white"/>
<path d="M121.3 346.3C120.1 346.1 117.6 344.5 115.9 342.9C113 340.2 112.8 339.6 113.2 335C113.5 332 115.1 327.2 117.1 323.2C124.4 309.1 139.3 280.5 140 279.5C140.4 279 144.7 270.9 149.5 261.5C154.3 252.2 159.1 243.2 160 241.5C161 239.9 165.3 231.8 169.6 223.5C173.9 215.3 178.8 205.8 180.6 202.5L183.9 196.5L201.9 196.2L219.9 196L216.1 203.2C171.3 288.1 152 325.5 152 327.4C152 329.9 152.4 330.1 158.3 331.4C159.8 331.8 161 332.4 161 332.8C161 333.2 159.4 336.6 157.4 340.3L153.9 347L138.7 346.9C130.3 346.8 122.5 346.5 121.3 346.3Z" fill="white"/>
<path d="M373.2 333.2C377.2 325.6 395.1 291.6 413 257.7L445.5 196H463.2C473 196 481 196.2 481 196.5C481 196.7 476.7 205.1 471.4 215C466.1 225 462 233.3 462.2 233.5C462.4 233.8 464.8 233.2 467.5 232.4C474.5 230.2 492.4 229.4 498.9 231C504.8 232.4 510.5 237 511.6 241.4C513 247.3 509.8 254.7 485.6 300.5L461.3 346.5L443.1 346.8L424.9 347L430.6 336.3C433.7 330.3 438.2 321.9 440.5 317.5C442.8 313.1 447 305.2 449.7 300C452.5 294.8 457.4 285.3 460.8 279C471.6 258.4 473 255.6 473 253.8C473 251 469 249 463.5 249.1C452.5 249.4 455.5 245.3 427.5 298.5L402.2 346.5L384.1 346.8L366 347L373.2 333.2Z" fill="white"/>
<path d="M482.2 345.7C482.4 345 495.9 318.9 512.3 287.7L542.2 231H560.2H578.1L570.1 246.3C565.7 254.6 552 280.6 539.7 304L517.4 346.5L499.6 346.8C485.3 347 481.9 346.8 482.2 345.7Z" fill="white"/>
<path d="M538 346.4C538 346.1 551.6 320 568.2 288.4L598.4 231H613.2H628L627.4 233.7C626.8 236 626.9 236.2 628.6 235.6C638.3 231.9 646.1 230.5 658.5 230.5C670.5 230.5 671.8 230.7 675.8 233C678.2 234.4 680.8 236.7 681.6 238.2C683.5 241.8 683.3 248.6 681.2 253.6C680.3 255.8 668.9 277.7 656 302.3L632.5 347H614.8C605 347 597 346.7 597 346.4C597 346 599.6 340.7 602.9 334.6C606.1 328.5 611.8 317.7 615.5 310.5C619.2 303.4 623.3 295.7 624.5 293.5C632.3 279.5 644 256 644 254.2C644 249.8 637.5 248 627.7 249.8C624 250.5 623.7 250.9 618.2 261.6C615.1 267.7 603.7 289.4 593 309.8L573.5 347H555.8C546 347 538 346.7 538 346.4Z" fill="white"/>
<path d="M547 222.4C547 222.1 550 216 553.8 208.9L560.5 196H578.3C588 196 596 196.3 596 196.8C596 197.2 592.9 203.1 589.2 210L582.5 222.5L564.7 222.8C555 222.9 547 222.8 547 222.4Z" fill="white"/>
<path d="M497.5 198.9C495.8 197.7 492.3 193.7 489.6 190C486.9 186.3 482.6 181.9 480.1 180.2C474.7 176.6 465.8 174 458.4 174C451.6 174 434 177.1 416 181.5C380 190.4 369.7 192.1 350.5 192.7C330.1 193.3 320.7 192.1 305.2 187.1C287.5 181.3 262.3 167.1 249.3 155.5C244.8 151.6 244 150.3 244 147.4C244 144.2 244.2 144 247.3 144C249.2 144 257.1 145.4 264.9 147C286.4 151.6 303.7 153.4 313.5 152.1C323.9 150.7 330.5 147.5 350.3 134.3C376.6 116.9 395.4 108.1 414 104.6C419.2 103.6 427.9 103 437.2 103C455.6 103 467 105.1 500.5 114.6C546 127.6 556.4 128.6 567.1 120.8C575.5 114.7 579.3 98.3 574.5 88.5C569.1 77.5 559.8 72.9 541.3 72.2L529 71.8V68.4C529 65.5 529.7 64.6 534.8 61.2C542.6 55.9 549 52.8 558.5 49.7C571.5 45.5 578.3 44.6 596.5 44.6C620.9 44.7 632.3 47.1 669.1 59.8C702.1 71.1 729 76.4 741.3 74C744.7 73.4 749.1 72 751 71C755.8 68.5 761.6 62 762.5 58C764.3 50 759.5 39.3 752.3 35.3C747.4 32.6 738.6 30 734.1 30C729.1 30 727.8 28.9 728.2 24.9C728.5 21.7 729.1 21.2 737.5 17C761.9 4.79999 794.6 -0.800008 827.4 1.79999C845.1 3.19999 856.3 5.69999 878.3 13.4C896.6 19.9 909.1 22.6 924.8 23.6L936 24.3V27.7C936 30.4 934.4 33.5 929.3 41C899.2 84.5 863.1 112 821 123.4C797.9 129.6 775.8 132 741.5 132C716.6 132 704.7 130.9 687 127.1C665.5 122.5 654.2 122.2 640 125.7C623.1 129.9 608.1 138.6 590.7 154.3C562.6 179.8 542.9 193.4 526.3 198.9C517.3 201.9 501.7 201.9 497.5 198.9Z" fill="white"/>
<path d="M1041.5 412C1003.5 409.8 965.6 397.3 936.5 377.3C928 371.4 926.5 369.9 926.2 367.4C925.9 364.9 924.9 364 918.5 360.7C900.4 351.4 878.3 319.6 868.1 288.5C861.8 269.1 860.5 259.8 860.5 235C860.5 217 860.9 211.6 862.8 201.8C865.6 186.7 870.7 171.3 877.4 157.4C884.9 141.7 889.4 135 892.3 135C894.3 135 894.9 134.1 896.5 128.9C898.6 121.8 903.6 115.2 917.4 101.4C955.1 63.9 1006.9 40.1 1062.3 34.9C1078.2 33.4 1110.6 34.2 1124.5 36.5C1141 39.1 1158.1 43.7 1159.5 45.9C1159.8 46.5 1161.5 47 1163.2 47C1169.2 47 1194.3 59.1 1209.5 69.3C1243.5 92.2 1268.9 126.5 1279.4 163.5C1283.7 178.6 1285.2 190.2 1285.4 208C1285.5 223.3 1285.3 225 1283.1 230.5C1281.5 234.5 1281.1 236.5 1281.9 236.8C1286.7 238.4 1277 272.7 1265.4 294.7C1250.7 322.8 1231.1 345.4 1203.6 366.2C1190.4 376.1 1189.6 376.6 1182.8 377.5C1178.5 378.1 1178 378.4 1178 380.6C1178 382.9 1176.6 383.8 1165.8 389C1141 400.8 1111.1 409.1 1084.8 411.5C1078 412.1 1077 412 1077 410.6C1077 409.2 1076.4 409.3 1072 411C1066.6 413.1 1063.2 413.2 1041.5 412Z" fill="#FF7E00"/>
<path d="M782.2 547C763.8 544.3 745.7 532.9 738.9 519.8C737.9 517.7 737 515.9 737 515.8C737 515.6 742.4 515.4 748.9 515.3C786.9 514.6 808.9 500 804.1 478.7C801.7 467.9 795.4 462.8 782.3 460.9C769.7 459.1 749.1 463 734.4 469.9C727.6 473.1 724.3 475.7 712.7 486.8C693.8 504.9 683.7 511.4 668 515.7C657.8 518.5 631.8 518.2 618.2 515.2C606.1 512.5 586.1 505.8 572.9 500C567.7 497.7 561.7 495.2 559.5 494.3L555.6 492.6L558.5 491.8C560.2 491.4 569.4 490.5 579 490C588.6 489.4 600.5 488.3 605.5 487.5C631.1 483.1 654 470.7 675.5 449.5C683.7 441.4 687.9 436.1 697.6 421.5C710.9 401.4 719.6 391.8 730 385.7C743.1 378.1 762.9 373.6 783.5 373.6C804.6 373.6 816.1 377.9 827.4 390.1C835 398.3 840 407.5 843.5 419.5C844.9 424.4 846.2 428.5 846.4 428.7C846.6 428.9 852.3 426.1 859.1 422.6C887.6 407.8 915.4 402.5 936.2 407.9C958.2 413.6 983.4 429 1005.9 450.5C1015.2 459.4 1025 471.1 1028.1 477.1C1030.4 481.7 1030.2 481.8 1020.5 479C1002.8 473.9 994.5 472.7 978.8 472.8C945.7 473.2 918.3 485.1 874 518.3C853.9 533.4 843 539.5 829.5 543C812.3 547.4 795.3 548.9 782.2 547ZM816.7 541.4C838 537.6 850.3 531.6 872 514.5C899 493.2 928.6 477.1 950.1 472.1C973.4 466.5 987.1 466.9 1018.4 473.7L1021.4 474.3L1019.2 471.3C1015 465.4 1002.6 452.8 993.4 445.1C967.8 423.8 942.6 411.3 923 410.3C902 409.2 872.6 418.1 850.5 432.4L843.5 436.9L842.2 431.2C835.6 401.4 821.9 384.5 800.4 379.4C790 377 766.8 377.9 753.5 381.4C729.9 387.5 720.4 395.2 701.8 423.1C689.3 441.9 679.6 453.1 667.1 463.2C641.9 483.5 618.6 492.3 586.1 493.7C570.3 494.4 570.3 494.6 587.9 501.5C620.6 514.1 649.7 517.2 670.7 510.2C685.7 505.1 691.3 501.3 711.9 481.7C726.5 467.9 733.8 463.7 751.5 459.4C765.6 455.9 783.4 455.5 791.9 458.4C803.2 462.3 809.8 473.3 808.8 486.5C807.6 500.7 796.7 510.9 777.3 516C768.6 518.2 756.9 519.9 749.8 520C747.1 520 745 520.2 745 520.5C745 522.2 748.8 526.3 754 530.4C769.7 542.8 789.6 546.3 816.7 541.4Z" fill="white"/>
<path d="M415 477.4C413.6 477.2 409.2 476.5 405.1 475.9C395.4 474.5 377.7 468.8 366.3 463.5C356.9 459.1 337.2 447.6 332.9 444L330.5 442.1L336.3 442C339.5 442 349.4 442.9 358.3 443.9C381.4 446.7 391.2 447.1 405.4 446C423.4 444.5 438.7 440.4 453.5 433.1C468.1 425.8 477.7 418.7 498.5 399.4C516.7 382.6 528.2 374.6 540.2 370.2C554.2 365.2 558.9 364.5 580 364.5C597.4 364.5 600.4 364.8 607.5 366.8C623.6 371.5 634.1 379.3 639.8 391C646.6 404.9 646.8 420 640.3 433.9C636.5 442.1 624.7 453.4 614.4 458.7C601.9 465.2 579.7 472 571.1 472C568.4 472 568.2 471.7 567.6 466.9C566.5 458.7 563.3 451.5 559 447.6C547.7 437.4 530.2 440.7 490.3 460.3C472 469.3 457.1 474.3 442.9 476.4C433.1 477.9 421.2 478.3 415 477.4ZM453.5 470.1C465.4 466.9 473.6 463.6 493 454.3C515.5 443.4 528.7 438.9 540 438.3C550.9 437.6 556 439 561.5 444.1C566.5 448.7 569.4 454.1 571 461.8C572.3 467.8 573 468 584 465.4C603.5 460.9 619.6 452.6 628.8 442.5C648.2 421.3 643.4 389.1 618.9 376C608.3 370.4 599.6 368.7 580.5 368.6C562.1 368.5 552.6 370 540.9 374.5C528.1 379.6 520.9 384.7 500 404C480.1 422.3 470.1 429.8 456.5 436.5C434.5 447.3 420.5 450.4 392.5 450.4C379.6 450.3 368.1 449.8 360.1 448.7C353.2 447.8 347.5 447.2 347.3 447.4C345.8 448.8 372.6 462.3 385.5 466.5C402.1 472.1 408 472.9 427.5 472.6C442.2 472.4 447 471.9 453.5 470.1Z" fill="black"/>
<path d="M83 473.1C73.9 471.2 66.5 464.7 63.6 456.2C62.7 453.7 62 448.4 62 444.4C62 427.5 71.7 416 86 416C98.6 416 107.5 425.4 108.7 440.1L109.3 447H91.6C78.2 447 74 447.3 74 448.3C74.1 451.1 78 457.8 80.7 459.8C85 462.8 89.7 463.3 97.3 461.6C101.1 460.7 104.3 460 104.5 460C105.3 460 107.1 468.2 106.7 469.5C105.7 472 89.5 474.5 83 473.1ZM95.8 435.2C96 434.6 94.7 432.6 92.9 430.6C90.4 427.7 89.1 427 86 427C83.7 427 81.2 427.8 79.6 429.1C76.7 431.4 74.6 434.6 75.4 435.8C76.1 436.9 95.4 436.4 95.8 435.2Z" fill="white"/>
<path d="M202.8 472.7C190.8 469.3 184.9 460 184.8 444.4C184.8 438.2 185.3 435.1 187 431.2C189.7 425 196.4 418.5 201.6 417.1C215.8 413.1 228.5 419.8 233 433.5C234.7 438.5 234.7 450.2 233.1 455.7C229.5 468.5 215.7 476.2 202.8 472.7ZM217.6 458.5C222.5 453 223.6 442.1 220.1 434.4C217.7 429.2 214.6 427 209.5 427C207.3 427 204.4 427.7 203.1 428.6C195.7 433.8 194.9 451.7 201.8 459.3C206.2 464.2 213 463.9 217.6 458.5Z" fill="white"/>
<path d="M262.8 472.7C250.8 469.3 244.9 460.1 244.9 444.4C244.8 434.3 247.4 427.8 253.4 422.2C258.9 417.2 263.6 415.6 271.6 416.3C282.3 417.1 289.5 423 293 433.5C294.7 438.5 294.7 450.1 293.1 455.7C289.5 468.5 275.7 476.2 262.8 472.7ZM276.6 459.9C280.3 456.4 282 451.7 282 444.8C281.9 433.5 277.4 427 269.5 427C264.4 427 261.3 429.2 258.9 434.4C254.5 444.1 258 458.9 265.5 462.1C268.5 463.4 274 462.3 276.6 459.9Z" fill="white"/>
<path d="M13.6 471.2C13.3 470.8 13.2 454.4 13.3 434.9L13.5 399.5L19.8 399.2L26 398.9V413V427H35.5H45V413V398.9L51.3 399.2L57.5 399.5V435.5V471.5L51.3 471.8L45 472.1V455V438H35.5H26V455V472H20.1C16.8 472 13.9 471.6 13.6 471.2Z" fill="white"/>
<path d="M125 450V428H117.5H110V422.5V417H123.5H137V444.5V472H131H125V450Z" fill="white"/>
<path d="M155 441V410H148H141V404.5V398.9L153.8 399.2L166.5 399.5L166.7 430.4L166.9 461.3L173.2 461.4L179.5 461.5L179.8 466.8L180.1 472H167.6H155V441Z" fill="white"/>
<path d="M126.6 410.9C121.4 406.8 124.3 398 130.8 398C137.5 398 140.6 406.8 135.4 410.9C133.9 412.1 132 413 131 413C130 413 128.1 412.1 126.6 410.9Z" fill="white"/>
<path d="M1037 412C966.3 405.2 904.9 365.9 877 309.5C869.2 293.9 865.2 282.6 861.9 267C859.9 257.8 859.6 253.6 859.6 234C859.6 214.4 859.9 210.2 861.8 201.1C873.4 148 904.4 103.8 952.4 71.9C995.5 43.3 1046.6 29.5 1099.8 32.2C1183.6 36.4 1254.5 86 1278 156.9C1295.2 208.7 1287.1 263.3 1255.3 311.4C1219.5 365.4 1159.6 401.4 1089.5 411C1078.6 412.5 1048.6 413.1 1037 412ZM1076.2 404.1C1083 401.4 1094.4 397.1 1101.5 394.5C1108.7 391.9 1114.6 389.7 1114.8 389.6C1114.9 389.4 1114 387 1112.9 384.1C1111.2 380.2 1110.3 379.1 1109.1 379.5C1104.6 381.3 1082 386.1 1071.5 387.6C1055.4 389.9 1024.9 389.9 1008 387.6C984.4 384.4 959.7 377.9 939.8 369.7C933.9 367.2 929.3 365.6 929.6 366.1C929.8 366.6 934.9 370.1 940.7 374.1C959.5 386.6 982.8 396.7 1006.1 402.3C1022.6 406.3 1034.2 407.7 1060.2 408.8C1062.7 408.9 1068.3 407.3 1076.2 404.1ZM1097.5 405.4C1102.4 404.6 1109.5 403.2 1113.2 402.4L1119.9 400.9L1118.3 397.4C1117.4 395.5 1116.4 394 1116.1 394C1115.1 394 1083 405.9 1081.2 406.9C1079.2 408 1083.8 407.6 1097.5 405.4ZM1162.8 385C1169.5 381.8 1175 378.9 1175 378.7C1175 378.1 1159.7 381.3 1147.1 384.5C1135.5 387.4 1121 391.9 1121 392.5C1121 392.7 1121.7 394.5 1122.6 396.4L1124.3 399.8L1137.4 395.3C1144.6 392.9 1156 388.2 1162.8 385ZM1131 384.5C1145.8 380.1 1158.9 377 1173.1 374.5C1188.4 372 1188.9 371.7 1207.5 356.9C1242.3 329.3 1267.4 291.5 1277.6 251.1C1278.9 246 1280 241 1280 240.1C1280 239.2 1277.6 242.6 1274.7 247.5C1241.5 304.1 1185.8 351.3 1125.5 374.1C1114.7 378.1 1114.8 378 1117.6 384.5C1118.7 387.2 1119.5 388 1120.8 387.6C1121.7 387.3 1126.3 385.9 1131 384.5ZM1077 382.6C1088.2 380.6 1107.2 376.1 1108.2 375.1C1108.6 374.8 1106.9 369 1104.4 362.4L1099.9 350.3L1092.7 351.7C1082.6 353.7 1061.6 353.6 1049.5 351.5C1018.4 346.3 992.4 331.5 963.5 302.4C923.2 261.9 897.1 209.8 893.1 161.8C892.5 155.6 892.5 147.4 892.9 143.6L893.6 136.7L891.3 139.6C887.2 144.6 875.1 170.1 871.5 181.3C865.6 199.7 863.6 212.8 863.5 234C863.5 255.6 865 265.8 871.1 284.5C881.1 315 903.3 347.2 920.7 356.3C945.9 369.4 981.7 380.3 1011.5 383.9C1023.8 385.4 1065.7 384.5 1077 382.6ZM1131.2 367.1C1174.4 349.8 1219.2 315.4 1250.5 275.5C1265.8 255.9 1278.3 234.1 1281.6 221.1C1283.4 213.7 1282.9 198.2 1280.4 183C1272.7 137.3 1245.1 96.6 1203.6 69.5C1194.5 63.5 1177.2 54.5 1168.1 51L1162.7 48.9L1164.6 51.7C1176 68.8 1186.6 94.8 1193.3 122C1203.1 161.3 1202.9 203.5 1192.9 244C1184.6 277.1 1173.3 298.7 1154.5 317.5C1141.2 330.9 1126.3 340.5 1106.3 348.6C1104.2 349.5 1104.2 349.6 1108.7 361.7L1113.2 373.8L1118.4 372C1121.2 371 1127 368.8 1131.2 367.1ZM1089.8 347.8C1094.3 347.2 1098 346.4 1098 346.1C1098 345.7 1094.9 336 1091.1 324.5C1074.3 273.8 1056.3 207 1028.4 92.5C1023.2 71.1 1018.5 51.8 1017.9 49.8L1016.9 46.1L1006.7 49.6C976.2 60.1 943.9 80.2 920.9 103C900.3 123.5 897.9 127.9 897.2 148.2C896.7 161.7 897.8 172.2 901.1 185.5C911.9 229.1 934.9 268.3 969.6 302C999.3 330.8 1024.6 344.3 1056.5 348.3C1063.4 349.2 1082.1 348.9 1089.8 347.8ZM1111.1 342C1132.2 333.3 1152.4 317 1165.7 297.8C1190.1 262.7 1202 196.7 1193.5 143.3C1188.6 112.3 1174.6 74.2 1160.7 54.2C1155.1 46.1 1154.9 46 1141 42.5C1106.3 33.7 1059.6 34.2 1026.4 43.5L1021.2 45L1023.1 52.7C1046.7 150.5 1070.7 243.7 1081.1 278.5C1087.5 299.7 1102.4 345 1103 345C1103.4 345 1107 343.6 1111.1 342Z" fill="black"/>
<path d="M502.8 201.6C496.8 199.4 494.1 197.2 490.6 191.7C483.3 180.5 475.6 176.2 461.5 175.3C451.6 174.7 437.4 177 409 183.9C361.4 195.4 342.2 196.9 317.5 191.1C294.4 185.6 267.4 171.5 248.7 155.3C242.5 149.9 233.6 140.1 234.2 139.4C234.4 139.3 241 140.7 249 142.6C272.4 148.3 291 151.1 304.5 151.2C323.1 151.2 326.7 149.8 353.1 132.3C379 115.2 396.9 106.9 415.2 103.6C440.1 99.2 455.1 100.9 499.3 113.6C531 122.6 538.8 124.3 550 124.4C565.4 124.6 571.4 120.5 574.6 107.9C581.2 82.1 562.1 68.5 527.5 74.5C522.7 75.4 518.5 75.9 518.3 75.7C518.1 75.5 520.9 72.6 524.4 69.2C536.5 58 553.1 49.5 571.5 45.3C581.5 42.9 609.4 43 621.5 45.3C633.8 47.7 637.5 48.8 668.5 59C696.5 68.2 708.8 71.2 725.5 73.1C745.5 75.3 759.5 69.6 761.6 58.3C762.5 53.6 760.6 43.7 758.3 40.6C753.3 34 743.7 30.9 727.6 30.9L716.8 30.8L719.4 28.1C723.1 24.3 736.7 16.4 746.4 12.4C765.2 4.79998 783.2 1.09998 806.1 0.299985C831.7 -0.600015 843.2 1.29998 875.5 12C900.4 20.2 909.9 22 927.8 22.1H941.1L937.9 27.8C921.5 57.1 890.1 89.8 862.5 106.2C831.5 124.7 793.4 133.4 743.5 133.3C719.2 133.3 708.5 132.3 687 127.8C675 125.2 670.2 124.7 659 124.7C642.9 124.7 634.5 126.6 620.5 133.5C608.5 139.4 601.6 144.3 586.5 158C572.1 171.1 554.9 184.3 543.1 191.3C527.5 200.6 511.1 204.8 502.8 201.6ZM523.3 195.9C539.9 190.4 559.6 176.8 587.7 151.3C620.3 121.8 647.3 114.7 690.5 124.2C706.7 127.7 719.8 129 741.5 129C772.7 129 795.5 126.4 818 120.4C860.1 109 896.2 81.5 926.3 38C930 32.6 933 28 933 27.7C933 27.5 927.9 26.9 921.8 26.6C906 25.6 893.7 22.9 874.3 16.1C853.7 8.89999 843 6.39998 827.5 4.89998C796.6 1.99998 758.6 9.09999 736.1 22.1C729.9 25.7 730.3 26.4 739 27.3C750.5 28.4 759.7 33.7 763.7 41.3C765.5 44.9 766.6 55.2 765.6 60.5C764.8 64.8 759.1 71.4 754.1 73.9C738.9 81.6 709.5 77.8 665.2 62.5C631.2 50.7 617.5 47.7 596.5 47.7C572.6 47.6 554.6 52.7 537.5 64.4L531.5 68.5L544 69.1C558.7 69.8 566.2 72.2 571.9 77.9C578.1 84.1 579.5 88.1 579.5 99.5C579.5 108.2 579.1 110.2 576.8 115.2C571.9 125.8 562.8 129.8 546.6 128.6C535.2 127.8 526.4 125.9 497.5 117.6C465.8 108.6 452.3 106 437.2 106C409.8 106 388.5 113.9 353.3 137.3C344.5 143.2 334.3 149.4 330.8 151C317.2 157.4 297.2 157.2 264.1 150.4C255 148.6 247.4 147.2 247.3 147.4C246.5 148.1 257.9 157.4 267 163.5C279 171.6 296.3 180.2 308.2 184.1C323.2 189 333.3 190.3 350.5 189.7C366.2 189.1 379.9 186.7 413 178.5C451.8 169 470.5 168.7 483.1 177.2C485.6 178.9 489.9 183.3 492.6 187C499.5 196.5 501.9 198 510.3 198C514.5 198 519.4 197.2 523.3 195.9Z" fill="white"/>
</svg>
