<svg width="167" height="71" viewBox="0 0 167 71" fill="none" xmlns="http://www.w3.org/2000/svg">
<path d="M101.926 70.7797C100.135 70.6372 98.7208 70.106 97.4491 69.1084C96.5148 68.3829 96.2813 68.046 96.2813 67.437V66.9836H96.9041C98.5261 66.9706 101.017 66.4394 102.146 65.8693C103.405 65.2345 104.313 64.1591 104.521 63.0708C104.755 61.8141 103.729 60.2464 102.367 59.7799C100.797 59.2487 97.6438 59.6892 95.4249 60.7646C94.5685 61.1792 94.0754 61.5549 92.7648 62.7987C90.0918 65.3381 89.3651 65.8305 87.4058 66.4912C86.3807 66.8411 85.9914 66.8929 84.3953 66.9577C82.3192 67.0224 81.1254 66.8929 78.8936 66.3228C77.4273 65.9471 75.403 65.2345 74.4558 64.7551C74.0276 64.5478 73.9627 64.4571 73.9627 64.0814V63.6538L75.6885 63.5761C79.8797 63.3947 82.9161 62.2416 86.173 59.6245C87.795 58.3159 89.0537 56.8648 90.6757 54.429C93.0892 50.8142 94.3089 49.8166 97.3842 49.0263C99.11 48.5728 102.821 48.4303 104.248 48.7672C106.74 49.3502 108.401 51.1381 109.322 54.2217C109.517 54.8695 109.698 55.4655 109.724 55.5562C109.75 55.6728 109.971 55.608 110.451 55.323C112.32 54.2217 114.902 53.263 116.913 52.9131C117.795 52.7706 118.613 52.7188 119.768 52.7706C121.182 52.8224 121.545 52.8743 122.558 53.237C125.801 54.4031 129.577 57.085 132.056 59.9743C132.705 60.7387 132.873 61.0237 132.873 61.3735C132.873 61.7881 132.86 61.8011 132.367 61.8011C132.082 61.8011 131.368 61.6845 130.771 61.542C128.202 60.933 126.269 60.933 123.673 61.5549C120.806 62.2287 117.147 64.2369 113.241 67.2686C111.606 68.5513 110.438 69.2639 109.231 69.7433C107.168 70.5725 104.3 70.9741 101.926 70.7797Z" fill="#0F1075"/>
<path d="M51.709 61.4254C49.5939 60.933 46.8301 59.8058 45.26 58.7953C44.715 58.4584 44.6371 58.3548 44.6371 57.9661C44.6371 57.5515 44.6631 57.5256 45.0653 57.5256C45.2989 57.5256 46.2202 57.6162 47.1026 57.7458C49.555 58.0697 52.786 58.0308 54.4988 57.6681C56.3414 57.2794 57.1719 56.9944 58.8458 56.1652C60.6105 55.2971 61.9081 54.3254 64.4903 51.9544C67.8121 48.8967 69.0189 48.1712 71.666 47.5881C73.1971 47.2642 77.2586 47.2642 78.673 47.5881C81.865 48.3396 83.5649 50.3608 83.5649 53.4314C83.5649 56.7741 81.6964 58.8989 77.5311 60.3111C76.5579 60.648 75.3252 60.8942 74.5856 60.8942H73.8589L73.7032 60.2204C73.3918 58.7434 72.4445 57.5515 71.3416 57.2664C70.057 56.9166 67.9549 57.5126 64.3605 59.2487C60.0136 61.3347 59.1312 61.5679 55.472 61.6197C53.1883 61.6586 52.5784 61.6197 51.709 61.4254Z" fill="#0F1075"/>
<path d="M85.4853 48.9744C84.6808 48.8319 83.4351 48.4692 83.4351 48.3785C83.4351 48.3396 83.7855 47.8602 84.2266 47.3031L85.0182 46.3055L85.9395 46.5516C86.5493 46.7071 87.3668 46.8108 88.3011 46.8237C89.6246 46.8367 89.7803 46.8108 90.4551 46.4739C91.2726 46.0723 92.103 45.269 92.5183 44.4398C92.7778 43.9215 92.7778 43.8956 92.5572 43.9863C90.6887 44.7766 88.3011 44.8803 87.1462 44.2066C85.8357 43.4551 86.0952 41.4987 87.9897 37.7544C89.6765 34.4376 91.597 32.0148 93.3357 30.9783C94.9188 30.0454 95.5416 29.864 97.2545 29.864C98.4872 29.864 98.9024 29.9159 99.2268 30.0843C99.5772 30.2786 99.642 30.2786 99.7069 30.1232C99.7588 29.9677 100.161 29.9288 102.056 29.9288C103.353 29.9288 104.326 29.9806 104.326 30.0454C104.326 30.2268 96.8392 44.4009 96.3591 45.1524C95.2302 46.8755 93.3747 48.1064 90.8833 48.7931C90.0009 49.0263 86.4585 49.1558 85.4853 48.9744ZM93.206 42.2502C93.3228 42.1595 94.2441 40.5011 95.2562 38.5706C96.2813 36.6272 97.4232 34.4635 97.7995 33.7639C98.2147 32.9865 98.4482 32.4294 98.3704 32.3516C98.1758 32.1573 96.7744 32.2091 96.3462 32.4164C95.8401 32.6885 95.5287 33.0383 94.815 34.1396C93.3747 36.4069 90.9611 41.2396 90.9611 41.8874C90.9611 42.4056 91.2077 42.5223 92.142 42.4704C92.6221 42.4445 93.1022 42.3538 93.206 42.2502Z" fill="#0F1075"/>
<path d="M25.1473 45.0746C22.8506 44.8285 22.2796 42.9628 23.6162 40.0865C25.0435 36.99 27.3662 34.8392 29.8835 34.2821C31.6872 33.8675 33.1794 33.9323 33.8801 34.4505L34.2694 34.7356L34.6716 33.8675C35.1777 32.7921 35.0998 32.4164 34.3213 32.1443C33.6725 31.9241 31.6353 32.1184 30.3636 32.5071C29.9095 32.6496 29.5072 32.7403 29.4813 32.7144C29.4553 32.6885 29.6889 32.1832 30.0003 31.5872L30.5583 30.5119L31.8559 30.2139C32.9329 29.9547 33.5557 29.9029 35.4372 29.89L37.708 29.864L38.4736 30.2527C39.4597 30.771 39.7452 31.2504 39.6674 32.3257C39.6414 32.7662 39.5117 33.3104 39.3819 33.5566C39.2651 33.8027 37.8767 36.4717 36.2936 39.4905L33.413 44.958H31.4925C29.6759 44.958 29.5591 44.9451 29.4942 44.6989C29.4553 44.5564 29.4164 44.4398 29.4034 44.4398C29.4034 44.4398 29.079 44.5564 28.6897 44.7119C27.8723 45.0098 26.2113 45.1912 25.1473 45.0746ZM29.4942 42.8073L30.0911 42.6L31.4925 39.931C33.2054 36.6661 33.1145 36.8863 32.881 36.5494C32.7252 36.3421 32.5436 36.2774 32.0894 36.2774C30.9216 36.2774 29.9873 37.0159 28.9493 38.8038C27.6257 41.0712 27.1326 42.4575 27.5349 42.8591C27.7555 43.0794 28.7806 43.0535 29.4942 42.8073Z" fill="#0F1075"/>
<path d="M38.3828 44.8932C37.6042 44.6859 37.0592 44.2843 36.8516 43.792C36.644 43.2737 36.7608 42.0947 37.0722 41.5765L37.3058 41.1878L39.0575 41.1748C40.0177 41.1748 40.8352 41.1878 40.8482 41.2137C40.8741 41.2396 40.8612 41.4858 40.8093 41.7578C40.6535 42.5611 41.1337 42.8332 42.2366 42.6C42.6518 42.5093 42.9373 42.3409 43.2617 41.9651C44.0403 41.11 43.9235 40.7602 42.0679 38.6095C40.6665 36.99 40.4719 36.1996 41.0558 34.5542C41.6916 32.7533 42.7816 31.5613 44.5593 30.7062C45.9737 30.0325 47.414 29.7474 49.1138 29.8252C50.6709 29.89 51.5144 30.2268 52.0075 30.9653C52.267 31.3411 52.3059 31.5354 52.254 32.0666C52.2151 32.4294 52.0853 32.9347 51.9815 33.2067L51.7739 33.6861H49.8924C48.0628 33.6861 48.0109 33.6732 48.1406 33.44C48.5429 32.6755 48.0239 32.0277 47.1415 32.1962C46.0904 32.3905 45.4157 33.129 45.4157 34.1007C45.4157 34.6319 45.6493 35.0206 46.7652 36.3421C48.0887 37.9228 48.3223 38.3892 48.3353 39.3869C48.3353 40.5788 47.8681 41.4987 46.5965 42.7684C45.4806 43.8827 44.5204 44.4139 42.8984 44.8285C41.7046 45.1265 39.3689 45.1653 38.3828 44.8932Z" fill="#0F1075"/>
<path d="M0.10382 44.7378C3.93171 37.4434 8.30459 29.2033 8.60304 28.7628C9.23886 27.8299 10.264 26.91 11.2501 26.3918C12.8332 25.5626 13.3133 25.4978 18.0884 25.433L22.3575 25.3683L21.7736 26.4566L21.1897 27.5319L18.2831 27.5967C14.9483 27.6745 14.6109 27.7652 13.6896 28.7757C13.2614 29.2422 11.9378 31.5225 11.9378 31.7945C11.9378 31.8334 13.2225 31.8723 14.7926 31.8723H17.6602L16.9985 33.1679L16.3237 34.4635L13.3912 34.4894L10.4586 34.5283L9.62814 36.083C9.18696 36.9381 8.27864 38.6613 7.61687 39.9051C6.96807 41.1489 6.09869 42.7814 5.70941 43.5329L4.99574 44.8933L2.49138 44.9321C0.129772 44.958 1.28907e-05 44.9451 0.10382 44.7378Z" fill="#0F1075"/>
<path d="M15.7398 44.8673C15.5841 44.8414 15.2597 44.6341 15.0391 44.4268C14.6628 44.077 14.6368 43.9993 14.6887 43.4033C14.7277 43.0146 14.9353 42.3927 15.1948 41.8745C16.142 40.0476 18.0755 36.3422 18.1663 36.2126C18.2182 36.1478 18.7761 35.0984 19.399 33.8805C20.0218 32.6756 20.6447 31.5095 20.7615 31.2892C20.8912 31.0819 21.4492 30.0325 22.0072 28.9571C22.5651 27.8947 23.2009 26.6639 23.4345 26.2363L23.8627 25.4589L26.1984 25.4201L28.534 25.3942L28.041 26.327C22.2277 37.3268 19.7234 42.1724 19.7234 42.4186C19.7234 42.7425 19.7753 42.7684 20.5409 42.9369C20.7355 42.9887 20.8912 43.0664 20.8912 43.1182C20.8912 43.1701 20.6836 43.6106 20.4241 44.09L19.9699 44.958L17.9976 44.9451C16.9076 44.9321 15.8955 44.8932 15.7398 44.8673Z" fill="#0F1075"/>
<path d="M48.4261 43.1701C48.9452 42.1854 51.2678 37.7803 53.5905 33.3881L57.8077 25.3942H60.1044C61.3761 25.3942 62.4142 25.4201 62.4142 25.4589C62.4142 25.4849 61.8562 26.5732 61.1685 27.8558C60.4807 29.1515 59.9487 30.2268 59.9747 30.2527C60.0006 30.2916 60.3121 30.2139 60.6624 30.1102C61.5707 29.8252 63.8934 29.7215 64.7368 29.9288C65.5024 30.1102 66.242 30.7062 66.3848 31.2763C66.5664 32.0407 66.1512 32.9995 63.011 38.9334L59.8579 44.8933L57.4963 44.9321L55.1347 44.958L55.8743 43.5717C56.2765 42.7943 56.8605 41.706 57.1589 41.136C57.4574 40.5659 58.0023 39.5423 58.3527 38.8686C58.716 38.1949 59.3518 36.9641 59.793 36.1478C61.1944 33.4788 61.3761 33.1161 61.3761 32.8829C61.3761 32.5201 60.857 32.261 60.1434 32.2739C58.716 32.3128 59.1053 31.7816 55.472 38.6743L52.1891 44.8933L49.8405 44.9321L47.4919 44.958L48.4261 43.1701Z" fill="#0F1075"/>
<path d="M62.5698 44.7896C62.5958 44.6989 64.3475 41.3173 66.4756 37.275L70.3554 29.9288H72.6911H75.0137L73.9757 31.9111C73.4047 32.9865 71.627 36.3551 70.031 39.3869L67.1374 44.8932L64.8277 44.9321C62.9721 44.958 62.5309 44.9321 62.5698 44.7896Z" fill="#0F1075"/>
<path d="M69.8104 44.8803C69.8104 44.8414 71.5752 41.4598 73.7292 37.3657L77.6479 29.9288H79.5683H81.4887L81.4109 30.2786C81.333 30.5766 81.346 30.6025 81.5666 30.5248C82.8253 30.0454 83.8374 29.864 85.4464 29.864C87.0035 29.864 87.1722 29.89 87.6912 30.1879C88.0027 30.3693 88.34 30.6673 88.4438 30.8617C88.6904 31.3281 88.6644 32.2091 88.3919 32.8569C88.2752 33.142 86.7959 35.9794 85.122 39.1666L82.0727 44.958H79.7759C78.5043 44.958 77.4662 44.9192 77.4662 44.8803C77.4662 44.8285 77.8036 44.1418 78.2318 43.3515C78.647 42.5611 79.3866 41.1619 79.8668 40.229C80.3469 39.3091 80.8789 38.3115 81.0346 38.0265C82.0467 36.2126 83.5649 33.1679 83.5649 32.9347C83.5649 32.3646 82.7215 32.1314 81.4498 32.3646C80.9697 32.4553 80.9308 32.5071 80.2171 33.8934C79.8149 34.6838 78.3356 37.4952 76.9472 40.1383L74.4169 44.958H72.1201C70.8485 44.958 69.8104 44.9192 69.8104 44.8803Z" fill="#0F1075"/>
<path d="M70.9782 28.8146C70.9782 28.7757 71.3675 27.9854 71.8606 27.0655L72.73 25.3942H75.0397C76.2984 25.3942 77.3364 25.433 77.3364 25.4978C77.3364 25.5496 76.9342 26.3141 76.4541 27.208L75.5847 28.8276L73.275 28.8664C72.0163 28.8794 70.9782 28.8664 70.9782 28.8146Z" fill="#0F1075"/>
<path d="M64.5552 25.7699C64.3346 25.6144 63.8804 25.0962 63.5301 24.6168C63.1797 24.1374 62.6218 23.5673 62.2974 23.3471C61.5967 22.8807 60.4418 22.5438 59.4816 22.5438C58.5992 22.5438 56.3155 22.9454 53.9798 23.5155C49.3085 24.6686 47.9719 24.8889 45.4806 24.9666C42.8335 25.0443 41.6138 24.8889 39.6025 24.2411C37.3057 23.4896 34.0358 21.6498 32.3489 20.1469C31.765 19.6416 31.6612 19.4732 31.6612 19.0974C31.6612 18.6828 31.6872 18.6569 32.0894 18.6569C32.336 18.6569 33.3611 18.8383 34.3732 19.0456C37.163 19.6416 39.4078 19.8748 40.6795 19.7064C42.029 19.525 42.8854 19.1104 45.4546 17.4002C48.8673 15.1458 51.3068 14.0057 53.7203 13.5522C54.395 13.4226 55.5239 13.3449 56.7307 13.3449C59.1183 13.3449 60.5975 13.617 64.9444 14.8478C70.8485 16.5321 72.198 16.6617 73.5864 15.6511C74.6764 14.8608 75.1695 12.7359 74.5466 11.4662C73.8459 10.0411 72.6392 9.44507 70.2386 9.35437L68.6426 9.30255V8.86204C68.6426 8.48631 68.7334 8.3697 69.3952 7.92919C70.4073 7.24251 71.2378 6.84087 72.4705 6.43923C74.1573 5.89507 75.0397 5.77846 77.4013 5.77846C80.5674 5.79142 82.0467 6.10237 86.8218 7.74781C91.1039 9.21186 94.5944 9.89854 96.1904 9.58759C96.6316 9.50985 97.2026 9.32846 97.4491 9.1989C98.0719 8.875 98.8245 8.03284 98.9413 7.51459C99.1749 6.4781 98.552 5.09178 97.6178 4.57353C96.982 4.22372 95.8401 3.88686 95.2562 3.88686C94.6074 3.88686 94.4387 3.74434 94.4906 3.22609C94.5295 2.81149 94.6074 2.74671 95.6973 2.20255C98.8635 0.621891 103.107 -0.103656 107.363 0.233205C109.659 0.414592 111.113 0.738497 113.967 1.73613C116.342 2.57828 117.964 2.9281 120.001 3.05766L121.455 3.14835V3.58886C121.455 3.93868 121.247 4.34032 120.585 5.31204C116.679 10.948 111.995 14.5109 106.532 15.988C103.535 16.7912 100.667 17.1022 96.2164 17.1022C92.9854 17.1022 91.4413 16.9597 89.1445 16.4673C86.3547 15.8713 84.8884 15.8325 83.0458 16.2859C80.8529 16.8301 78.9065 17.9573 76.6487 19.9914C73.0025 23.2953 70.4462 25.0573 68.2922 25.7699C67.1244 26.1586 65.1001 26.1586 64.5552 25.7699Z" fill="#0F1075"/>
<path d="M135.144 53.3796C130.213 53.0945 125.295 51.475 121.519 48.8838C120.416 48.1194 120.222 47.925 120.183 47.6011C120.144 47.2772 120.014 47.1606 119.184 46.733C116.835 45.5281 113.967 41.408 112.644 37.3787C111.826 34.8652 111.658 33.6602 111.658 30.4471C111.658 28.115 111.71 27.4153 111.956 26.1456C112.319 24.1892 112.981 22.194 113.851 20.3931C114.824 18.359 115.408 17.4909 115.784 17.4909C116.044 17.4909 116.121 17.3743 116.329 16.7006C116.602 15.7807 117.25 14.9256 119.041 13.1376C123.933 8.27903 130.654 5.19545 137.843 4.52173C139.906 4.32739 144.11 4.43103 145.914 4.72903C148.055 5.06589 150.274 5.66187 150.456 5.94691C150.495 6.02465 150.715 6.08943 150.936 6.08943C151.714 6.08943 154.971 7.65713 156.944 8.97866C161.355 11.9456 164.651 16.3896 166.014 21.1834C166.572 23.1398 166.766 24.6427 166.792 26.9489C166.805 28.9312 166.779 29.1515 166.494 29.8641C166.286 30.3823 166.234 30.6414 166.338 30.6803C166.961 30.8876 165.702 35.3316 164.197 38.182C162.29 41.8226 159.746 44.7507 156.178 47.4456C154.465 48.7283 154.361 48.7931 153.479 48.9097C152.921 48.9874 152.856 49.0263 152.856 49.3113C152.856 49.6093 152.675 49.7259 151.273 50.3997C148.055 51.9285 144.175 53.0038 140.763 53.3148C139.88 53.3925 139.751 53.3796 139.751 53.1982C139.751 53.0168 139.673 53.0298 139.102 53.25C138.401 53.5221 137.96 53.5351 135.144 53.3796Z" fill="#FF7E00"/>
<path d="M101.498 70.8704C99.11 70.5206 96.7614 69.0436 95.879 67.3464C95.7493 67.0743 95.6325 66.8411 95.6325 66.8281C95.6325 66.8022 96.3332 66.7763 97.1766 66.7633C102.107 66.6726 104.962 64.781 104.339 62.0214C104.028 60.6221 103.21 59.9613 101.511 59.7152C99.8756 59.4819 97.2026 59.9872 95.2951 60.8812C94.4128 61.2958 93.9845 61.6327 92.4793 63.0708C90.0269 65.4159 88.7163 66.258 86.6791 66.8152C85.3556 67.1779 81.9818 67.1391 80.2171 66.7504C78.647 66.4006 76.0518 65.5325 74.339 64.781C73.6643 64.483 72.8857 64.1591 72.6002 64.0425L72.0942 63.8223L72.4705 63.7186C72.6911 63.6668 73.8849 63.5502 75.1305 63.4854C76.3762 63.4077 77.9204 63.2652 78.5692 63.1615C81.891 62.5914 84.8625 60.9849 87.6523 58.2381C88.7163 57.1887 89.2613 56.502 90.52 54.6104C92.2458 52.0062 93.3747 50.7624 94.7242 49.9721C96.424 48.9874 98.9932 48.4044 101.666 48.4044C104.404 48.4044 105.896 48.9615 107.363 50.5422C108.349 51.6046 108.998 52.7965 109.452 54.3513C109.633 54.9861 109.802 55.5173 109.828 55.5433C109.854 55.5692 110.594 55.2064 111.476 54.7529C115.174 52.8354 118.782 52.1487 121.481 52.8484C124.335 53.5869 127.605 55.5821 130.525 58.3677C131.731 59.5208 133.003 61.0367 133.405 61.8141C133.704 62.41 133.678 62.423 132.419 62.0602C130.122 61.3995 129.045 61.244 127.008 61.2569C122.713 61.3088 119.158 62.8506 113.409 67.152C110.801 69.1084 109.387 69.8987 107.635 70.3522C105.403 70.9223 103.197 71.1166 101.498 70.8704ZM105.974 70.1449C108.738 69.6526 110.334 68.8752 113.15 66.6597C116.653 63.9 120.494 61.8141 123.284 61.1663C126.308 60.4407 128.085 60.4925 132.147 61.3736L132.536 61.4513L132.251 61.0626C131.706 60.2982 130.097 58.6657 128.903 57.6681C125.581 54.9084 122.311 53.2889 119.768 53.1593C117.043 53.0168 113.228 54.1699 110.36 56.0226L109.452 56.6057L109.283 55.8672C108.427 52.0062 106.649 49.8166 103.859 49.1558C102.51 48.8449 99.4993 48.9615 97.7735 49.415C94.7112 50.2053 93.4785 51.2029 91.065 54.8177C89.443 57.2535 88.1843 58.7046 86.5623 60.0131C83.2924 62.6433 80.269 63.7834 76.0518 63.9648C74.0016 64.0555 74.0016 64.0814 76.2854 64.9754C80.5285 66.6079 84.3045 67.0095 87.0295 66.1026C88.9758 65.4418 89.7025 64.9495 92.3755 62.41C94.27 60.6221 95.2173 60.0779 97.514 59.5208C99.3436 59.0673 101.653 59.0155 102.756 59.3912C104.223 59.8965 105.079 61.3217 104.949 63.0319C104.793 64.8717 103.379 66.1933 100.862 66.854C99.7329 67.1391 98.2147 67.3593 97.2934 67.3723C96.943 67.3723 96.6706 67.3982 96.6706 67.4371C96.6706 67.6573 97.1636 68.1885 97.8384 68.7197C99.8756 70.3263 102.458 70.7798 105.974 70.1449Z" fill="black"/>
<path d="M53.85 61.8529C53.6684 61.827 53.0974 61.7363 52.5654 61.6586C51.3067 61.4772 49.01 60.7387 47.5308 60.052C46.311 59.4819 43.7548 57.992 43.1968 57.5256L42.8854 57.2794L43.638 57.2664C44.0532 57.2664 45.3378 57.383 46.4927 57.5126C49.4901 57.8754 50.7618 57.9272 52.6043 57.7847C54.94 57.5903 56.9253 57.0591 58.8457 56.1133C60.7402 55.1675 61.9859 54.2476 64.6849 51.7471C67.0465 49.5704 68.5388 48.534 70.0959 47.9639C71.9125 47.3161 72.5224 47.2254 75.2603 47.2254C77.5181 47.2254 77.9074 47.2642 78.8287 47.5234C80.9178 48.1323 82.2802 49.1429 83.0199 50.6588C83.9022 52.4597 83.9282 54.4161 83.0848 56.217C82.5917 57.2794 81.0605 58.7434 79.724 59.4301C78.102 60.2723 75.2213 61.1533 74.1054 61.1533C73.7551 61.1533 73.7291 61.1144 73.6513 60.4925C73.5085 59.4301 73.0933 58.4973 72.5353 57.992C71.0691 56.6704 68.7983 57.098 63.6209 59.6374C61.2463 60.8035 59.3129 61.4513 57.4703 61.7234C56.1987 61.9177 54.6545 61.9695 53.85 61.8529ZM58.8457 60.9071C60.3899 60.4925 61.4539 60.065 63.9712 58.86C66.8908 57.4478 68.6036 56.8648 70.0699 56.7871C71.4843 56.6964 72.1461 56.8777 72.8597 57.5385C73.5085 58.1345 73.8848 58.8341 74.0924 59.8318C74.2611 60.6091 74.352 60.635 75.7793 60.2982C78.3096 59.7152 80.3987 58.6398 81.5925 57.3312C84.1099 54.5845 83.487 50.4126 80.3079 48.7153C78.9325 47.9898 77.8036 47.7695 75.3252 47.7566C72.9376 47.7436 71.7049 47.938 70.1867 48.521C68.5258 49.1818 67.5915 49.8425 64.8795 52.3431C62.2973 54.7141 60.9998 55.6858 59.235 56.5538C56.3803 57.9531 54.5637 58.3548 50.9304 58.3548C49.2565 58.3418 47.7643 58.277 46.7262 58.1345C45.8309 58.0179 45.0913 57.9402 45.0653 57.9661C44.8707 58.1475 48.3482 59.8965 50.0221 60.4407C52.1761 61.1662 52.9417 61.2699 55.472 61.231C57.3795 61.2051 58.0023 61.1403 58.8457 60.9071Z" fill="black"/>
<path d="M10.77 61.2958C9.58921 61.0497 8.62899 60.2075 8.25269 59.1062C8.13591 58.7823 8.04507 58.0956 8.04507 57.5774C8.04507 55.3878 9.30374 53.8978 11.1593 53.8978C12.7943 53.8978 13.9491 55.1157 14.1048 57.0203L14.1827 57.9143H11.8859C10.1472 57.9143 9.60218 57.9531 9.60218 58.0827C9.61516 58.4455 10.1212 59.3135 10.4716 59.5726C11.0295 59.9613 11.6394 60.0261 12.6256 59.8059C13.1187 59.6893 13.5339 59.5986 13.5598 59.5986C13.6636 59.5986 13.8972 60.661 13.8453 60.8294C13.7155 61.1533 11.6135 61.4772 10.77 61.2958ZM12.4309 56.3854C12.4569 56.3077 12.2882 56.0486 12.0546 55.7894C11.7302 55.4137 11.5615 55.323 11.1593 55.323C10.8608 55.323 10.5364 55.4267 10.3288 55.5951C9.95253 55.8931 9.68004 56.3077 9.78385 56.4632C9.87468 56.6057 12.379 56.5409 12.4309 56.3854Z" fill="black"/>
<path d="M26.3152 61.244C24.758 60.8035 23.9925 59.5985 23.9795 57.5774C23.9795 56.7741 24.0444 56.3724 24.265 55.8671C24.6153 55.0639 25.4847 54.2217 26.1594 54.0403C28.002 53.5221 29.65 54.3901 30.2339 56.1651C30.4545 56.8129 30.4545 58.3288 30.2469 59.0414C29.7797 60.6998 27.989 61.6974 26.3152 61.244ZM28.2356 59.4042C28.8714 58.6916 29.0141 57.2794 28.56 56.2817C28.2486 55.608 27.8463 55.323 27.1845 55.323C26.8991 55.323 26.5228 55.4137 26.3541 55.5303C25.3939 56.204 25.2901 58.5232 26.1854 59.5078C26.7563 60.1427 27.6387 60.1038 28.2356 59.4042Z" fill="black"/>
<path d="M34.1007 61.244C32.5436 60.8035 31.778 59.6115 31.778 57.5774C31.765 56.2688 32.1024 55.4266 32.881 54.7011C33.5946 54.0533 34.2045 53.846 35.2426 53.9367C36.631 54.0403 37.5653 54.8047 38.0194 56.1651C38.24 56.8129 38.24 58.3159 38.0324 59.0414C37.5653 60.6998 35.7746 61.6974 34.1007 61.244ZM35.8914 59.5856C36.3715 59.1321 36.5921 58.5232 36.5921 57.6292C36.5791 56.1651 35.9952 55.323 34.9701 55.323C34.3083 55.323 33.9061 55.608 33.5946 56.2817C33.0237 57.5385 33.4779 59.456 34.451 59.8706C34.8403 60.039 35.554 59.8965 35.8914 59.5856Z" fill="black"/>
<path d="M1.76471 61.0496C1.72578 60.9978 1.71281 58.873 1.72578 56.3465L1.75173 51.7601L2.56922 51.7212L3.37372 51.6823V53.5091V55.323H4.60644H5.83915V53.5091V51.6823L6.65663 51.7212L7.46114 51.7601V56.4243V61.0885L6.65663 61.1274L5.83915 61.1663V58.9507V56.7482H4.60644H3.37372V58.9507V61.1533H2.60814C2.17994 61.1533 1.80364 61.1015 1.76471 61.0496Z" fill="black"/>
<path d="M16.2199 58.3029V55.4526H15.2467H14.2735V54.74V54.0274H16.0252H17.777V57.5903V61.1533H16.9984H16.2199V58.3029Z" fill="black"/>
<path d="M20.1127 57.1369V53.1205H19.2044H18.2961V52.4079V51.6823L19.957 51.7212L21.6049 51.7601L21.6309 55.7635L21.6568 59.767L22.4743 59.7799L23.2918 59.7929L23.3307 60.4796L23.3696 61.1533H21.7476H20.1127V57.1369Z" fill="black"/>
<path d="M16.4275 53.2371C15.7527 52.7058 16.1291 51.5657 16.9725 51.5657C17.8419 51.5657 18.2441 52.7058 17.5694 53.2371C17.3747 53.3925 17.1282 53.5091 16.9984 53.5091C16.8687 53.5091 16.6221 53.3925 16.4275 53.2371Z" fill="black"/>
<path d="M134.56 53.3796C125.386 52.4985 117.419 47.4068 113.799 40.0995C112.787 38.0783 112.268 36.6142 111.839 34.5931C111.58 33.4011 111.541 32.8569 111.541 30.3175C111.541 27.7781 111.58 27.2339 111.826 26.0549C113.332 19.1752 117.354 13.4485 123.583 9.31551C129.175 5.61004 135.806 3.82208 142.709 4.1719C153.583 4.71606 162.783 11.1423 165.832 20.3283C168.064 27.0396 167.013 34.1137 162.887 40.3456C158.241 47.342 150.469 52.0062 141.373 53.25C139.958 53.4443 136.065 53.5221 134.56 53.3796ZM139.647 52.356C140.529 52.0062 142.008 51.4491 142.93 51.1122C143.864 50.7754 144.63 50.4903 144.655 50.4774C144.668 50.4515 144.552 50.1405 144.409 49.7648C144.188 49.2595 144.072 49.117 143.916 49.1688C143.332 49.402 140.399 50.0239 139.037 50.2183C136.948 50.5162 132.99 50.5162 130.797 50.2183C127.735 49.8037 124.53 48.9615 121.948 47.8991C121.182 47.5752 120.585 47.3679 120.624 47.4327C120.65 47.4974 121.312 47.9509 122.064 48.4692C124.504 50.0887 127.527 51.3973 130.551 52.1228C132.692 52.6411 134.197 52.8224 137.571 52.965C137.895 52.9779 138.622 52.7706 139.647 52.356ZM142.411 52.5245C143.046 52.4208 143.968 52.2394 144.448 52.1358L145.317 51.9414L145.11 51.488C144.993 51.2418 144.863 51.0474 144.824 51.0474C144.694 51.0474 140.529 52.5892 140.296 52.7188C140.036 52.8613 140.633 52.8095 142.411 52.5245ZM150.884 49.8814C151.753 49.4668 152.467 49.0911 152.467 49.0651C152.467 48.9874 150.482 49.402 148.847 49.8166C147.341 50.1923 145.46 50.7754 145.46 50.8531C145.46 50.879 145.551 51.1122 145.668 51.3584L145.888 51.7989L147.588 51.2159C148.522 50.9049 150.002 50.296 150.884 49.8814ZM146.758 49.8166C148.678 49.2465 150.378 48.8449 152.22 48.521C154.206 48.1971 154.271 48.1582 156.684 46.2407C161.2 42.6648 164.457 37.7673 165.78 32.533C165.949 31.8723 166.092 31.2245 166.092 31.1078C166.092 30.9912 165.78 31.4318 165.404 32.0666C161.096 39.3998 153.868 45.5151 146.044 48.4692C144.643 48.9874 144.655 48.9745 145.019 49.8166C145.162 50.1664 145.265 50.2701 145.434 50.2183C145.551 50.1794 146.148 49.998 146.758 49.8166ZM139.751 49.5704C141.204 49.3113 143.669 48.7283 143.799 48.5987C143.851 48.5599 143.63 47.8084 143.306 46.9533L142.722 45.3856L141.788 45.567C140.477 45.8261 137.752 45.8131 136.182 45.5411C132.147 44.8673 128.773 42.9498 125.023 39.1796C119.794 33.9323 116.407 27.1821 115.888 20.9631C115.81 20.1599 115.81 19.0974 115.862 18.6051L115.953 17.7111L115.654 18.0869C115.122 18.7347 113.552 22.0385 113.085 23.4896C112.32 25.8735 112.06 27.5708 112.047 30.3175C112.047 33.1161 112.242 34.4376 113.033 36.8604C114.331 40.812 117.211 44.9839 119.469 46.163C122.739 47.8602 127.385 49.2724 131.251 49.7389C132.847 49.9332 138.284 49.8166 139.751 49.5704ZM146.784 47.5622C152.389 45.3208 158.202 40.8639 162.264 35.6943C164.249 33.1549 165.871 30.3305 166.299 28.6462C166.533 27.6874 166.468 25.6792 166.144 23.7099C165.144 17.7889 161.563 12.5157 156.178 9.00456C154.997 8.22719 152.752 7.06113 151.572 6.60767L150.871 6.33559L151.117 6.69836C152.597 8.91387 153.972 12.2825 154.842 15.8066C156.113 20.8984 156.087 26.3659 154.79 31.6131C153.713 35.9016 152.246 38.7002 149.807 41.136C148.081 42.8721 146.148 44.1159 143.553 45.1653C143.28 45.2819 143.28 45.2949 143.864 46.8626L144.448 48.4303L145.123 48.1971C145.486 48.0675 146.239 47.7825 146.784 47.5622ZM141.412 45.0617C141.995 44.9839 142.476 44.8803 142.476 44.8414C142.476 44.7896 142.073 43.5328 141.58 42.0429C139.4 35.4741 137.065 26.8193 133.444 11.9845C132.77 9.21186 132.16 6.71131 132.082 6.45219L131.952 5.97281L130.629 6.42628C126.671 7.78668 122.48 10.3909 119.495 13.3449C116.822 16.0009 116.511 16.571 116.42 19.2011C116.355 20.9502 116.498 22.3106 116.926 24.0338C118.327 29.6827 121.312 34.7615 125.814 39.1277C129.668 42.8591 132.951 44.6082 137.091 45.1265C137.986 45.2431 140.412 45.2042 141.412 45.0617ZM144.175 44.3102C146.913 43.183 149.534 41.0712 151.26 38.5836C154.426 34.0359 155.97 25.4849 154.868 18.5662C154.232 14.5498 152.415 9.6135 150.611 7.02226C149.885 5.97281 149.859 5.95986 148.055 5.50639C143.553 4.36624 137.493 4.43102 133.185 5.63595L132.51 5.83029L132.757 6.82792C135.819 19.4991 138.933 31.5743 140.283 36.083C141.113 38.8297 143.046 44.6989 143.124 44.6989C143.176 44.6989 143.643 44.5175 144.175 44.3102Z" fill="black"/>
<path d="M65.2429 26.1197C64.4643 25.8347 64.114 25.5496 63.6598 24.8371C62.7126 23.386 61.7134 22.8288 59.8838 22.7122C58.5992 22.6345 56.7566 22.9325 53.0715 23.8265C46.8949 25.3164 44.4036 25.5108 41.1985 24.7593C38.2011 24.0467 34.6976 22.2199 32.2711 20.121C31.4666 19.4214 30.3117 18.1517 30.3896 18.061C30.4155 18.048 31.2719 18.2294 32.31 18.4756C35.3464 19.2141 37.7599 19.5768 39.5116 19.5898C41.9252 19.5898 42.3923 19.4084 45.8179 17.1411C49.1787 14.9256 51.5014 13.8502 53.876 13.4226C57.107 12.8526 59.0534 13.0728 64.7887 14.7183C68.9021 15.8843 69.9142 16.1046 71.3675 16.1175C73.3658 16.1434 74.1444 15.6122 74.5596 13.9798C75.416 10.6371 72.9376 8.87501 68.4479 9.65238C67.8251 9.76899 67.2801 9.83377 67.2541 9.80786C67.2282 9.78194 67.5915 9.40621 68.0457 8.9657C69.6158 7.51461 71.7698 6.41333 74.1573 5.86917C75.4549 5.55822 79.0752 5.57118 80.6453 5.86917C82.2413 6.18012 82.7214 6.32264 86.744 7.64417C90.3772 8.83614 91.9733 9.22483 94.1402 9.47099C96.7354 9.75603 98.552 9.01753 98.8245 7.55348C98.9413 6.94454 98.6948 5.66187 98.3963 5.26023C97.7475 4.40512 96.5018 4.00348 94.4127 4.00348L93.0113 3.99052L93.3487 3.6407C93.8288 3.14837 95.5935 2.12483 96.8522 1.60658C99.2917 0.621905 101.627 0.142526 104.599 0.038877C107.921 -0.0777288 109.413 0.168438 113.604 1.55475C116.835 2.61716 118.068 2.85038 120.391 2.86333H122.116L121.701 3.60183C119.573 7.398 115.499 11.6347 111.917 13.7595C107.895 16.1564 102.951 17.2836 96.4759 17.2706C93.3228 17.2706 91.9343 17.1411 89.1445 16.558C87.5874 16.2212 86.9646 16.1564 85.5113 16.1564C83.4221 16.1564 82.3322 16.4026 80.5155 17.2965C78.9584 18.061 78.0631 18.6958 76.1037 20.4708C74.2352 22.1681 72.0033 23.8783 70.4722 24.7852C68.4479 25.9902 66.3199 26.5343 65.2429 26.1197ZM67.9029 25.3812C70.0569 24.6686 72.6132 22.9066 76.2594 19.6027C80.4896 15.7807 83.9931 14.8608 89.5987 16.0916C91.7008 16.5451 93.4006 16.7135 96.2164 16.7135C100.265 16.7135 103.223 16.3767 106.143 15.5993C111.606 14.1223 116.29 10.5593 120.196 4.92337C120.676 4.22373 121.065 3.62775 121.065 3.58888C121.065 3.56297 120.403 3.48523 119.612 3.44636C117.562 3.3168 115.966 2.96698 113.448 2.08596C110.775 1.15311 109.387 0.829205 107.376 0.634862C103.366 0.259132 98.4353 1.17902 95.5157 2.86333C94.7112 3.32975 94.7631 3.42045 95.892 3.53705C97.3842 3.67957 98.578 4.36625 99.097 5.35092C99.3306 5.81735 99.4733 7.15183 99.3436 7.83851C99.2398 8.39563 98.5001 9.25074 97.8513 9.57464C95.879 10.5723 92.0641 10.0799 86.3158 8.09764C81.904 6.56881 80.1262 6.18012 77.4013 6.18012C74.3001 6.16716 71.9644 6.82793 69.7455 8.34381L68.967 8.87501L70.589 8.95275C72.4964 9.04344 73.4696 9.35439 74.2092 10.0929C75.0137 10.8962 75.1954 11.4144 75.1954 12.8914C75.1954 14.0186 75.1435 14.2777 74.8451 14.9256C74.2092 16.2989 73.0284 16.8172 70.9263 16.6617C69.4471 16.558 68.3052 16.3119 64.5552 15.2365C60.4418 14.0704 58.69 13.7336 56.7307 13.7336C53.1753 13.7336 50.4114 14.7571 45.8439 17.7889C44.702 18.5533 43.3785 19.3566 42.9243 19.5639C41.1596 20.3931 38.5644 20.3672 34.2694 19.4861C33.0886 19.2529 32.1024 19.0715 32.0894 19.0975C31.9856 19.1881 33.4649 20.3931 34.6457 21.1834C36.2028 22.2329 38.4476 23.3471 39.9918 23.8524C41.9381 24.4872 43.2487 24.6557 45.4806 24.5779C47.5178 24.5002 49.2955 24.1892 53.5905 23.1268C58.6252 21.896 61.0517 21.8571 62.6866 22.9584C63.011 23.1787 63.569 23.7487 63.9193 24.2281C64.8147 25.459 65.1261 25.6533 66.2161 25.6533C66.7611 25.6533 67.3969 25.5496 67.9029 25.3812Z" fill="black"/>
</svg>
